<svg width="18" height="18" viewBox="0 0 18 18" fill="none" xmlns="http://www.w3.org/2000/svg">
<path d="M9.07379 11.8402C7.50833 11.8402 6.23401 10.5656 6.23401 9.00015C6.23401 7.4347 7.50833 6.16115 9.07379 6.16115C10.6397 6.16115 11.9131 7.4347 11.9131 9.00015C11.9131 10.5656 10.6397 11.8402 9.07379 11.8402ZM9.07379 4.56735C6.62942 4.56735 4.64073 6.55591 4.64073 9.00015C4.64073 11.4444 6.62942 13.433 9.07379 13.433C11.5182 13.433 13.5065 11.4444 13.5065 9.00015C13.5065 6.55591 11.5182 4.56735 9.07379 4.56735Z" fill="white"/>
<path d="M5.40678 1.69354C3.35908 1.69354 1.69345 3.35872 1.69345 5.40714V12.5929C1.69345 14.6413 3.35908 16.3065 5.40678 16.3065H12.5928C14.6406 16.3065 16.3066 14.6413 16.3066 12.5929V5.40714C16.3066 3.35872 14.6406 1.69354 12.5928 1.69354H5.40678ZM12.5928 18H5.40678C2.42557 18 0 15.5747 0 12.5929V5.40714C0 2.42534 2.42557 0 5.40678 0H12.5928C15.574 0 18 2.42534 18 5.40714V12.5929C18 15.5747 15.574 18 12.5928 18Z" fill="white"/>
<path fill-rule="evenodd" clip-rule="evenodd" d="M5.40678 1.69354C3.35908 1.69354 1.69345 3.35872 1.69345 5.40714V12.5929C1.69345 14.6413 3.35908 16.3065 5.40678 16.3065H12.5928C14.6406 16.3065 16.3066 14.6413 16.3066 12.5929V5.40714C16.3066 3.35872 14.6406 1.69354 12.5928 1.69354H5.40678ZM12.71 4.26926C12.71 3.68655 13.1825 3.21408 13.7653 3.21408C14.3482 3.21408 14.8202 3.68655 14.8202 4.26926C14.8202 4.85197 14.3482 5.32548 13.7653 5.32548C13.1825 5.32548 12.71 4.85197 12.71 4.26926ZM4.64073 9.00015C4.64073 6.55591 6.62942 4.56735 9.07379 4.56735C11.5182 4.56735 13.5065 6.55591 13.5065 9.00015C13.5065 11.4444 11.5182 13.433 9.07379 13.433C6.62942 13.433 4.64073 11.4444 4.64073 9.00015Z" fill="white"/>
</svg>
