<svg width="118" height="118" viewBox="0 0 118 118" fill="none" xmlns="http://www.w3.org/2000/svg">
<path d="M113.69 36.8045C110.814 29.6881 106.492 23.016 100.737 17.2626C94.984 11.5085 88.3119 7.18602 81.1955 4.31046C74.0782 1.43398 66.517 0 58.959 0C51.4116 0 43.864 1.4402 36.7614 4.31991C29.6597 7.19846 23.0035 11.5202 17.2621 17.2626C11.52 23.0038 7.198 29.6599 4.31945 36.7618C1.4402 43.864 0 51.4114 0 58.9587C0 66.5167 1.43398 74.078 4.31 81.1955C7.18555 88.3119 11.5078 94.9842 17.2621 100.738C23.0155 106.492 29.6876 110.814 36.804 113.69C43.9214 116.566 51.4826 118 59.0406 118C66.588 118 74.1356 116.56 81.2382 113.68C88.3398 110.802 94.996 106.48 100.737 100.737C106.48 94.996 110.802 88.3398 113.68 81.2382C116.56 74.1358 118 66.5884 118 59.0406C118 51.483 116.566 43.9216 113.69 36.8045ZM106.387 78.2812C103.893 84.4311 100.16 90.1847 95.1725 95.1728C90.1845 100.16 84.4308 103.893 78.2812 106.387C72.1326 108.88 65.5875 110.13 59.0408 110.13C52.4777 110.13 45.9163 108.884 39.7533 106.393C33.5897 103.901 27.8243 100.169 22.8275 95.173C17.8311 90.176 14.0987 84.4108 11.6071 78.2469C9.11619 72.0839 7.87028 65.5223 7.87051 58.9592C7.87051 52.4125 9.12057 45.8677 11.6136 39.719C14.1075 33.5694 17.8404 27.8157 22.8279 22.8277C27.816 17.8404 33.5696 14.1075 39.7194 11.6133C45.8681 9.12011 52.4132 7.87028 58.9599 7.87028C65.523 7.87028 72.0844 9.11596 78.2474 11.6071C84.411 14.0992 90.1764 17.8314 95.1732 22.8275C100.17 27.8245 103.902 33.5897 106.394 39.7533C108.885 45.9163 110.13 52.4777 110.13 59.0408C110.13 65.5873 108.881 72.1321 106.387 78.2812Z" fill="#1ABC0F"/>
<path d="M83.5034 34.4967C81.9999 32.9931 79.562 32.9931 78.0582 34.4967L34.4966 78.0583C32.993 79.5621 32.993 81.9998 34.4966 83.5036C36.0004 85.0074 38.438 85.0074 39.9418 83.5036L83.5037 39.9418C85.007 38.4382 85.007 36.0001 83.5034 34.4967Z" fill="#1ABC0F"/>
<path d="M56.8705 31.5909C56.3063 30.1979 55.454 28.8877 54.3333 27.7676C53.2134 26.6469 51.9032 25.7948 50.51 25.2304C49.1161 24.6655 47.64 24.3844 46.1652 24.3844C44.6904 24.3844 43.2143 24.6655 41.8204 25.2304C40.4275 25.7946 39.1173 26.6469 37.9972 27.7676C36.8764 28.8873 36.0244 30.1977 35.4599 31.5909C34.8951 32.9848 34.6139 34.4609 34.6139 35.9357C34.6139 37.4105 34.8951 38.8866 35.4599 40.2805C36.0241 41.6734 36.8766 42.9837 37.9972 44.1037C39.117 45.2245 40.4272 46.0765 41.8204 46.641C43.2143 47.2058 44.6904 47.487 46.1652 47.487C47.64 47.487 49.1161 47.2058 50.51 46.641C51.903 46.0768 53.2132 45.2245 54.3333 44.1037C55.454 42.9839 56.3061 41.6737 56.8705 40.2805C57.4354 38.8866 57.7165 37.4105 57.7165 35.9357C57.7165 34.4609 57.4356 32.9848 56.8705 31.5909ZM49.734 37.3865C49.5464 37.8474 49.271 38.2745 48.888 38.6584C48.5042 39.0415 48.0772 39.3169 47.6162 39.5045C47.156 39.6914 46.6614 39.7861 46.1654 39.7861C45.6692 39.7861 45.1749 39.6912 44.7146 39.5045C44.2537 39.3169 43.8267 39.0415 43.4429 38.6584C43.0599 38.2747 42.7845 37.8477 42.5969 37.3867C42.41 36.9265 42.3152 36.4319 42.3152 35.9359C42.315 35.4397 42.41 34.9451 42.5966 34.4849C42.7842 34.0239 43.0597 33.5969 43.4427 33.2132C43.8266 32.8301 44.2535 32.5545 44.7146 32.3671C45.1749 32.1802 45.6695 32.0855 46.1654 32.0855C46.6616 32.0855 47.156 32.1804 47.6162 32.3671C48.0772 32.5547 48.5042 32.8301 48.888 33.2132C49.271 33.5969 49.5464 34.0239 49.734 34.4849C49.9209 34.9451 50.0157 35.4397 50.0157 35.9357C50.0157 36.4317 49.9207 36.9262 49.734 37.3865Z" fill="#1ABC0F"/>
<path d="M85.1064 75.1907C84.5422 73.7978 83.6897 72.4875 82.5691 71.3675C81.4495 70.2467 80.1391 69.3946 78.7459 68.8302C77.352 68.2654 75.8759 67.9842 74.4011 67.9842C72.9263 67.9842 71.4502 68.2654 70.0563 68.8302C68.6633 69.3944 67.3531 70.2467 66.2331 71.3675C65.1123 72.4871 64.2602 73.7975 63.6958 75.1907C63.1309 76.5846 62.8498 78.0607 62.8498 79.5355C62.8498 81.0103 63.1309 82.4864 63.6958 83.8803C64.26 85.2733 65.1123 86.5835 66.2331 87.7036C67.3529 88.8243 68.6631 89.6764 70.0563 90.2408C71.4502 90.8057 72.9263 91.0868 74.4011 91.0868C75.8759 91.0868 77.352 90.8057 78.7459 90.2408C80.1388 89.6766 81.4491 88.8243 82.5691 87.7036C83.6899 86.5837 84.542 85.2735 85.1064 83.8803C85.6712 82.4864 85.9524 81.0103 85.9524 79.5355C85.9524 78.0607 85.6715 76.5846 85.1064 75.1907ZM77.9701 80.9858C77.7825 81.4468 77.5071 81.8738 77.1241 82.2576C76.7404 82.6406 76.3133 82.916 75.8524 83.1036C75.3921 83.2905 74.8975 83.3853 74.4016 83.3853C73.9054 83.3853 73.411 83.2903 72.9508 83.1036C72.4898 82.916 72.0628 82.6406 71.679 82.2576C71.296 81.8738 71.0206 81.4468 70.833 80.9858C70.6461 80.5256 70.5511 80.031 70.5513 79.535C70.5513 79.0388 70.6463 78.5445 70.833 78.0842C71.0206 77.6233 71.296 77.1962 71.679 76.8125C72.0628 76.4295 72.4898 76.1541 72.951 75.9665C73.4112 75.7796 73.9058 75.6848 74.4018 75.6848C74.898 75.6848 75.3923 75.7798 75.8526 75.9665C76.3131 76.1541 76.7399 76.4295 77.1241 76.8125C77.5071 77.1962 77.7825 77.6233 77.9701 78.0842C78.1571 78.5445 78.2518 79.0391 78.2518 79.535C78.2518 80.0312 78.1568 80.5258 77.9701 80.9858Z" fill="#1ABC0F"/>
</svg>
