<svg width="30" height="18" viewBox="0 0 30 18" fill="none" xmlns="http://www.w3.org/2000/svg">
<path fill-rule="evenodd" clip-rule="evenodd" d="M29.3093 1.20789C29.5203 0.497368 29.3093 0 28.3245 0H25.0418C24.1977 0 23.8226 0.45 23.6115 0.947368C23.6115 0.947368 21.9468 5.06842 19.5786 7.72105C18.8048 8.50263 18.4766 8.73947 18.0545 8.73947C17.8435 8.73947 17.5387 8.50263 17.5387 7.79211V1.20789C17.5387 0.355263 17.3042 0 16.6008 0H11.4423C10.9265 0 10.5982 0.402631 10.5982 0.757894C10.5982 1.56316 11.7706 1.75263 11.9113 3.97895V8.85789C11.9113 9.92369 11.7237 10.1132 11.3017 10.1132C10.1996 10.1132 7.47973 5.99211 5.8853 1.25526C5.55704 0.378948 5.25222 0 4.40811 0H1.12548C0.187579 0 0 0.45 0 0.947368C0 1.82368 1.10203 6.18158 5.18188 11.9368C7.90178 15.8684 11.7237 18 15.1939 18C17.2807 18 17.5387 17.5263 17.5387 16.7211V13.7368C17.5387 12.7895 17.7262 12.6 18.4062 12.6C18.8986 12.6 19.7193 12.8368 21.6654 14.7316C23.8929 16.9816 24.2681 18 25.5108 18H28.7934C29.7313 18 30.2003 17.5263 29.9189 16.6026C29.6141 15.6789 28.559 14.3289 27.1521 12.7184C26.3783 11.7947 25.2294 10.8237 24.9012 10.3263C24.4088 9.68684 24.5494 9.40263 24.9012 8.85789C24.9012 8.83421 28.9107 3.15 29.3093 1.20789Z" fill="white"/>
</svg>
