<svg width="118" height="118" viewBox="0 0 118 118" fill="none" xmlns="http://www.w3.org/2000/svg">
<path d="M113.422 55.9934L62.9286 5.49983C59.4348 2.00609 54.6003 0 49.6556 0H10.7274C4.8137 0 0 4.81093 0 10.7274V49.6531C0 54.6659 1.95379 59.38 5.49983 62.9286L55.9934 113.422C58.9476 116.374 62.876 118 67.0453 118C71.2146 118 75.1431 116.374 78.0973 113.422L113.422 78.0975C116.376 75.1486 118 71.2227 118 67.0456C118 62.8685 116.376 58.9423 113.422 55.9934ZM109.63 74.3054L74.3054 109.63C70.4189 113.506 63.6723 113.506 59.7858 109.63L9.292 59.1361C6.75693 56.6011 5.36356 53.233 5.36356 49.6528V10.7274C5.36356 7.77066 7.76789 5.36381 10.7271 5.36381H49.6556C53.186 5.36381 56.6431 6.7964 59.1361 9.29225L109.63 59.7858C111.568 61.7238 112.636 64.3008 112.636 67.0456C112.636 69.7901 111.568 72.3671 109.63 74.3054Z" fill="#1ABC0F"/>
<path d="M63.1747 66.967C63.6984 67.4907 64.3845 67.7527 65.0709 67.7527C65.757 67.7527 66.4432 67.4907 66.9671 66.967C68.0148 65.9194 68.0148 64.2223 66.9671 63.1749L63.174 59.3817L66.9671 55.5877L72.6555 61.2786C73.7032 62.3263 75.4003 62.3263 76.4477 61.2786C77.4954 60.231 77.4954 58.5339 76.4477 57.4865L68.8631 49.8993C68.3603 49.3965 67.6794 49.1136 66.9669 49.1136C66.2544 49.1136 65.5735 49.3965 65.0707 49.8993L49.9017 65.0711C48.854 66.1187 48.854 67.8158 49.9017 68.8632L57.4863 76.4478C58.01 76.9716 58.6964 77.2335 59.3825 77.2335C60.0687 77.2335 60.7548 76.9716 61.2788 76.4478C62.3264 75.4002 62.3264 73.7031 61.2788 72.6557L55.5904 66.9673L59.3823 63.1746L63.1747 66.967Z" fill="#1ABC0F"/>
<path d="M84.0321 65.0708C82.9844 64.0232 81.2873 64.0232 80.2399 65.0708L65.0709 80.2398C64.0233 81.2875 64.0233 82.9846 65.0709 84.032L72.6555 91.6191C73.1793 92.1428 73.8656 92.4048 74.5518 92.4048C75.2379 92.4048 75.924 92.1428 76.448 91.6191C77.4956 90.5714 77.4956 88.8743 76.448 87.8269L70.7596 82.136L74.5518 78.3438L78.3439 82.136C78.8677 82.6597 79.554 82.9217 80.2402 82.9217C80.9263 82.9217 81.6124 82.6597 82.1364 82.136C83.184 81.0884 83.184 79.3913 82.1364 78.3438L78.3442 74.5517L82.1364 70.7595L87.8248 76.4479C88.8724 77.4955 90.5695 77.4955 91.6169 76.4479C92.6646 75.4002 92.6646 73.7031 91.6169 72.6557L84.0321 65.0708Z" fill="#1ABC0F"/>
<path d="M36.6237 36.6262C37.6714 35.5786 37.6714 33.8815 36.6237 32.8341L32.8315 29.0399L36.6237 25.2469L42.3121 30.9353C43.3598 31.983 45.0568 31.983 46.1043 30.9353C47.1519 29.8877 47.1519 28.1906 46.1043 27.1431L38.5197 19.5585C37.514 18.5529 35.7332 18.5529 34.7275 19.5585L27.1469 27.1404L27.1429 27.1429L27.1416 27.1454L19.5585 34.73C18.5108 35.7777 18.5108 37.4748 19.5585 38.5222C20.0822 39.0459 20.7686 39.3079 21.4547 39.3079C22.1409 39.3079 22.827 39.0459 23.3509 38.5222L29.0396 32.8325L32.8315 36.6262C33.3552 37.1499 34.0416 37.4119 34.7277 37.4119C35.4136 37.4119 36.0997 37.1499 36.6237 36.6262Z" fill="#1ABC0F"/>
<path d="M52.2379 52.2432C54.2231 52.1383 56.0721 51.3134 57.4863 49.8992C60.6238 46.7617 60.6238 41.6599 57.4863 38.5224L53.6941 34.7302C52.6465 33.6826 50.9494 33.6826 49.902 34.7302L42.3855 42.2439C42.3594 42.2676 42.3332 42.2912 42.3121 42.3146C42.2859 42.3382 42.2648 42.3619 42.2439 42.388L34.7275 49.8992C33.6798 50.9469 33.6798 52.644 34.7275 53.6914C35.7751 54.739 37.4722 54.739 38.5196 53.6914L44.208 48.003L46.1095 49.8964C47.1519 50.9441 47.1519 52.6465 46.1095 53.6914L42.3121 57.4863C41.2644 58.5312 41.2644 60.2311 42.3121 61.2785C42.8358 61.8022 43.5222 62.0642 44.2083 62.0642C44.8944 62.0642 45.5806 61.8022 46.1045 61.2785L49.902 57.4835C51.3527 56.0301 52.1331 54.1522 52.2379 52.2432ZM51.7979 40.4184L53.6941 42.3146C54.7418 43.3595 54.7418 45.0619 53.6941 46.1068C53.186 46.6121 52.5155 46.8925 51.7979 46.8925H51.7927C51.0804 46.8925 50.4098 46.6149 49.9017 46.1042L48.0055 44.2108L51.7979 40.4184Z" fill="#1ABC0F"/>
</svg>
