<svg width="118" height="81" viewBox="0 0 118 81" fill="none" xmlns="http://www.w3.org/2000/svg">
<path d="M105.094 0H12.9062C5.78984 0 0 5.78091 0 12.8864V68.1136C0 75.2191 5.78984 81 12.9062 81H105.094C112.21 81 118 75.2191 118 68.1136V12.8864C118 5.78091 112.21 0 105.094 0ZM12.9062 7.36364H105.094C108.144 7.36364 110.625 9.84127 110.625 12.8864V20.25H7.375V12.8864C7.375 9.84127 9.85646 7.36364 12.9062 7.36364ZM105.094 73.6364H12.9062C9.85646 73.6364 7.375 71.1587 7.375 68.1136V27.6136H110.625V68.1136C110.625 71.1587 108.144 73.6364 105.094 73.6364Z" fill="#1ABC0F"/>
<path d="M25.8125 62.5909H22.125C20.0886 62.5909 18.4375 60.9424 18.4375 58.9091V55.2273C18.4375 53.194 20.0886 51.5455 22.125 51.5455H25.8125C27.8489 51.5455 29.5 53.194 29.5 55.2273V58.9091C29.5 60.9424 27.8489 62.5909 25.8125 62.5909Z" fill="#1ABC0F"/>
</svg>
