<svg width="146" height="93" viewBox="0 0 146 93" fill="none" xmlns="http://www.w3.org/2000/svg">
<path d="M98.155 52.3916L85.7273 46.8933C84.8493 46.505 84.2824 45.6361 84.2824 44.68V41.2829C88.4571 37.9717 91.1405 32.8728 91.1405 27.1588V22.3766C92.5158 21.6202 93.4263 20.1583 93.4263 18.521V18.0569C93.4263 8.10039 85.2888 0 75.2866 0H70.715C60.7128 0 52.5753 8.10039 52.5753 18.0569V22.2679C52.5753 23.7071 53.1975 25.0108 54.2819 25.8451C54.4659 25.9864 54.6595 26.1108 54.8611 26.2183V27.1585C54.8611 32.8725 57.5441 37.9714 61.7185 41.2823V44.6798C61.7185 45.6358 61.1514 46.5047 60.2737 46.893L47.846 52.3913C43.7759 54.1918 41.1459 58.2202 41.1459 62.6538V90.8702C41.1459 92.0459 42.1035 92.9991 43.2846 92.9991C44.4657 92.9991 45.4233 92.0459 45.4233 90.8702V62.6541C45.4233 62.4074 45.4409 62.1636 45.4666 61.9217L51.1931 67.6221C52.0842 68.5095 52.5753 69.6889 52.5753 70.9438V90.8705C52.5753 92.0462 53.5328 92.9994 54.714 92.9994C55.8951 92.9994 56.8526 92.0462 56.8526 90.8705V70.9438C56.8526 68.5518 55.917 66.303 54.2178 64.6115L47.3908 57.8155C48.0059 57.1802 48.7439 56.6536 49.5834 56.2821L61.8015 50.8766L70.8624 59.8961V90.8702C70.8624 92.0459 71.8199 92.9991 73.0011 92.9991C74.1822 92.9991 75.1397 92.0459 75.1397 90.8702V59.8964L84.2006 50.8769L96.4184 56.2821C97.2579 56.6536 97.9959 57.1802 98.611 57.8158L91.7841 64.6115C90.0848 66.303 89.1492 68.5518 89.1492 70.9438V90.8705C89.1492 92.0462 90.1068 92.9994 91.2879 92.9994C92.469 92.9994 93.4266 92.0462 93.4266 90.8705V70.9438C93.4266 69.6892 93.9173 68.5095 94.8087 67.6221L100.535 61.922C100.561 62.1639 100.578 62.4071 100.578 62.6538V90.8702C100.578 92.0459 101.536 92.9991 102.717 92.9991C103.898 92.9991 104.856 92.0459 104.856 90.8702V62.6541C104.855 58.2205 102.225 54.1921 98.155 52.3916ZM73.0002 56.0039L65.0498 48.0894C65.6543 47.0769 65.9956 45.9054 65.9956 44.68V43.8137C68.1523 44.7158 70.5188 45.2157 73.0005 45.2157C75.4822 45.2157 77.8484 44.7161 80.0048 43.814V44.68C80.0048 45.9057 80.3461 47.0769 80.951 48.0897L73.0002 56.0039ZM73.0005 40.9576C65.3569 40.9578 59.1382 34.7675 59.1382 27.1588V26.2013C60.4727 25.6748 61.7753 24.8368 63.0223 23.6915C63.89 22.8941 63.9445 21.5472 63.1432 20.6832C62.3422 19.8194 60.9894 19.7652 60.1211 20.5625C59.0515 21.5455 57.9827 22.1805 56.9453 22.4502C56.9202 22.4567 56.9017 22.4595 56.8886 22.4607C56.8732 22.4309 56.8523 22.3684 56.8523 22.2682V18.0572C56.8523 10.4485 63.0711 4.25812 70.7147 4.25812H75.2863C82.9302 4.25812 89.1487 10.4485 89.1487 18.0572V18.5213C89.1487 18.5903 89.107 18.6502 89.0523 18.661C76.2456 21.1788 69.8221 16.4335 67.6549 14.2762C66.8197 13.4448 65.4655 13.4448 64.6306 14.2762C63.7953 15.1077 63.7953 16.4557 64.6306 17.2868C71.2719 23.8978 80.9629 24.017 86.8628 23.3114V27.1585C86.8628 34.7672 80.6441 40.9576 73.0005 40.9576Z" fill="#1ABC0F"/>
<path d="M38.5652 40.812V36.2603C38.5652 30.7064 35.6657 25.8173 31.2968 23.0037C31.5666 22.1422 31.7074 21.2398 31.7074 20.3323C31.7074 15.3944 27.6719 11.3773 22.7113 11.3773C17.7507 11.3773 13.7152 15.3947 13.7152 20.3323C13.7152 21.2512 13.8549 22.1448 14.1252 23.0043C9.75664 25.8176 6.85745 30.7067 6.85745 36.2603V40.8111C6.85745 46.1893 9.57585 50.9451 13.7149 53.7955V58.4772C13.7149 59.4006 13.1996 60.2306 12.3701 60.6436L4.97285 64.3252C1.90542 65.8523 0 68.9214 0 72.3353V90.8708C0 92.0465 0.957557 92.9997 2.13868 92.9997C3.3198 92.9997 4.27735 92.0465 4.27735 90.8708V73.2561L7.7614 76.7243C8.65252 77.6116 9.14355 78.791 9.14355 80.046V90.8708C9.14355 92.0465 10.1011 92.9997 11.2822 92.9997C12.4634 92.9997 13.4209 92.0465 13.4209 90.8708V80.046C13.4209 77.6539 12.485 75.4052 10.7861 73.7137L5.93697 68.8867C5.91358 68.8635 5.88849 68.8433 5.86454 68.8214C6.1688 68.5541 6.51013 68.3213 6.88597 68.1339L14.2832 64.4523C14.6622 64.2636 15.0149 64.0407 15.3437 63.7932L20.5726 68.9986V90.8711C20.5726 92.0468 21.5302 93 22.7113 93C23.8924 93 24.85 92.0468 24.85 90.8711V68.9983L30.0792 63.7929C30.4083 64.0407 30.7607 64.2636 31.1397 64.4521L33.1794 65.4674C33.4865 65.6204 33.8128 65.6928 34.1344 65.6928C34.9189 65.6928 35.6743 65.2613 36.049 64.5156C36.5774 63.464 36.1491 62.1852 35.0925 61.6595L33.0528 60.6441C32.223 60.2311 31.7077 59.4011 31.7077 58.478V53.7964C35.8468 50.9459 38.5652 46.1899 38.5652 40.812ZM22.7113 15.6351C25.3134 15.6351 27.4301 17.7424 27.4301 20.3323C27.4301 20.6176 27.4044 20.8972 27.3554 21.1711C25.8857 20.7221 24.3267 20.4788 22.7113 20.4788C21.0982 20.4788 19.5412 20.7212 18.0738 21.1692C18.0245 20.8952 17.9925 20.6171 17.9925 20.3323C17.9925 17.7422 20.1093 15.6351 22.7113 15.6351ZM22.7113 24.7369C29.0946 24.7369 34.2878 29.9065 34.2878 36.2606V37.0322C25.3838 39.7458 20.0773 33.0034 19.8506 32.7079C19.4785 32.2143 18.9096 31.9054 18.2914 31.8617C17.6732 31.8186 17.0658 32.0437 16.6275 32.48C14.5861 34.5121 12.5865 35.4922 11.1425 35.9654C11.3008 29.7473 16.4276 24.7369 22.7113 24.7369ZM22.7113 65.1055L17.7693 60.186C17.9136 59.637 17.9925 59.0648 17.9925 58.4775V55.8788C19.4836 56.3426 21.0688 56.5927 22.7113 56.5927C24.3538 56.5927 25.939 56.3426 27.4301 55.8788V58.4775C27.4301 59.0648 27.5091 59.6373 27.6534 60.186L22.7113 65.1055ZM22.7113 52.3348C16.3281 52.3348 11.1348 47.1652 11.1348 40.8111V40.37C12.8403 39.98 15.3691 39.0736 18.0071 36.9618C18.9404 37.8383 20.2744 38.9135 21.973 39.8358C23.9823 40.9267 26.7571 41.9358 30.1465 41.9358C31.4346 41.9358 32.8127 41.7867 34.2696 41.4444C33.9379 47.5053 28.881 52.3348 22.7113 52.3348Z" fill="#1ABC0F"/>
<path d="M141.027 59.7746L129.059 53.8173C128.229 53.4043 127.714 52.5743 127.714 51.6512V48.6341C130.515 46.1581 132.285 42.5497 132.285 38.5359V36.1127C132.335 36.1127 132.383 36.1141 132.433 36.1141C133.614 36.1141 134.571 35.1609 134.571 33.9852V29.4344C134.571 21.9872 128.485 15.9283 121.003 15.9283H116.432C108.95 15.9283 102.863 21.9872 102.863 29.4344V33.9852C102.863 35.1609 103.821 36.1141 105.002 36.1141C105.02 36.1141 105.071 36.1135 105.149 36.1104V38.5359C105.149 42.55 106.92 46.1583 109.721 48.6344V51.6515C109.721 52.5749 109.206 53.4049 108.376 53.8176C107.32 54.3433 106.891 55.6221 107.42 56.6738C107.794 57.4198 108.55 57.8512 109.334 57.8512C109.656 57.8512 109.982 57.7788 110.289 57.6261C110.668 57.4374 111.021 57.2145 111.349 56.967L116.579 62.1723V90.871C116.579 92.0468 117.536 92.9999 118.717 92.9999C119.898 92.9999 120.856 92.0468 120.856 90.871V62.1718L126.085 56.9664C126.414 57.2142 126.766 57.4371 127.145 57.6255L138.727 63.3901L135.214 66.8869C133.515 68.5784 132.579 70.8271 132.579 73.2192V90.8705C132.579 92.0462 133.537 92.9994 134.718 92.9994C135.899 92.9994 136.857 92.0462 136.857 90.8705V73.2192C136.857 71.9645 137.347 70.7848 138.239 69.8975L141.566 66.5852C141.667 66.9704 141.723 67.372 141.723 67.7842V90.8705C141.723 92.0462 142.68 92.9994 143.861 92.9994C145.042 92.9994 146 92.0462 146 90.8705V67.7842C146 64.3705 144.095 61.3015 141.027 59.7746ZM107.141 31.4183V29.4341C107.141 24.3346 111.309 20.1858 116.432 20.1858H121.003C126.126 20.1858 130.294 24.3346 130.294 29.4341V31.7989C120.997 31.2996 115.386 27.6983 115.332 27.6629C114.97 27.4227 114.557 27.3052 114.146 27.3052C113.594 27.3052 113.047 27.5175 112.633 27.9288C110.587 29.9658 108.582 30.9462 107.141 31.4183ZM118.717 58.2793L113.775 53.3598C113.92 52.8108 113.999 52.2385 113.999 51.6512V51.1979C115.469 51.7426 117.059 52.0418 118.717 52.0418C120.376 52.0418 121.966 51.7426 123.436 51.1979V51.6512C123.436 52.2385 123.515 52.8108 123.659 53.3598L118.717 58.2793ZM118.717 47.7843C113.595 47.7843 109.427 43.6357 109.427 38.5359V35.1039C110.925 34.508 112.67 33.5608 114.446 32.0547C116.692 33.2179 121.39 35.2285 128.008 35.8927V38.5359C128.008 43.6354 123.84 47.7843 118.717 47.7843Z" fill="#1ABC0F"/>
</svg>
