<svg width="118" height="118" viewBox="0 0 118 118" fill="none" xmlns="http://www.w3.org/2000/svg">
<path d="M2.28068 97.8706C3.74824 96.403 5.70168 95.5998 7.78403 95.5998H13.1486V81.5985C13.1486 77.5329 16.4605 74.221 20.526 74.221H27.5862C31.6518 74.221 34.9637 77.5329 34.9637 81.5985V95.5899H40.7249V76.8487C40.7249 75.6291 41.7165 74.6375 42.9361 74.6375C44.1558 74.6375 45.1474 75.6291 45.1474 76.8487V95.5899H58.1076V68.321C58.1076 66.6948 56.7788 65.3661 55.1526 65.3661H48.0924C46.4662 65.3661 45.1375 66.6948 45.1375 68.321V69.9968C45.1375 71.2165 44.1459 72.2081 42.9262 72.2081C41.7066 72.2081 40.715 71.2165 40.715 69.9968V68.321C40.715 64.2555 44.0269 60.9435 48.0924 60.9435H55.1526C59.2181 60.9435 62.5301 64.2555 62.5301 68.321V95.5899H68.2913V41.4091C68.2913 37.3435 71.6032 34.0316 75.6687 34.0316H82.7289C86.7945 34.0316 90.1064 37.3435 90.1064 41.4091V95.5899H95.5899V7.77412C95.5899 3.49042 99.0803 0 103.364 0C105.446 0 107.4 0.813109 108.867 2.28067C110.335 3.74824 111.148 5.70168 111.148 7.78403V14.7748C111.148 15.9945 110.156 16.986 108.937 16.986C107.717 16.986 106.726 15.9945 106.726 14.7748V7.77412C106.726 6.87177 106.378 6.02891 105.744 5.39429C105.109 4.75966 104.266 4.4126 103.364 4.4126C101.51 4.4126 100.012 5.91983 100.012 7.77412V97.8012C100.012 99.0208 99.0208 100.012 97.8012 100.012H7.77412C6.88168 100.012 6.02891 100.359 5.39429 100.994C4.75967 101.629 4.41261 102.472 4.41261 103.364C4.41261 105.218 5.91983 106.726 7.77412 106.726H97.8012C99.0208 106.726 100.012 107.717 100.012 108.937V110.226C100.012 111.118 100.359 111.971 100.994 112.606C101.629 113.24 102.472 113.587 103.364 113.587C105.218 113.587 106.726 112.08 106.726 110.226V108.937C106.726 107.717 107.717 106.726 108.937 106.726H110.226C111.128 106.726 111.971 106.378 112.606 105.744C113.24 105.109 113.587 104.266 113.587 103.364C113.587 101.51 112.08 100.012 110.226 100.012H108.937C107.717 100.012 106.726 99.0208 106.726 97.8012V21.5672C106.726 20.3476 107.717 19.356 108.937 19.356C110.156 19.356 111.148 20.3476 111.148 21.5672V95.6494C115.025 96.1055 118 99.4076 118 103.364C118 105.446 117.187 107.4 115.719 108.867C114.47 110.117 112.834 110.9 111.089 111.098C110.652 115.005 107.34 118 103.364 118C101.282 118 99.3382 117.187 97.8607 115.719C96.6212 114.48 95.8477 112.864 95.6395 111.138H7.77412C3.49042 111.138 0 107.648 0 103.364C0 101.292 0.813118 99.3381 2.28068 97.8706ZM30.5313 81.5985C30.5313 79.9723 29.2025 78.6435 27.5763 78.6435H20.5161C18.8899 78.6435 17.5612 79.9723 17.5612 81.5985V95.5899H30.5313V81.5985ZM85.6839 41.4091C85.6839 39.7829 84.3551 38.4541 82.7289 38.4541H75.6687C74.0425 38.4541 72.7138 39.7829 72.7138 41.4091V95.5899H85.6839V41.4091Z" fill="#1ABC0F"/>
<path d="M79.1988 20.3774C78.0089 20.3774 76.8091 20.1196 75.7282 19.6139L58.4744 40.1201C59.4363 41.5083 59.942 43.1346 59.942 44.8302C59.942 49.4213 56.2136 53.1497 51.6225 53.1497C49.1435 53.1497 46.7637 52.0193 45.187 50.0956L32.2765 55.8171C32.3359 56.2236 32.3657 56.6401 32.3657 57.0467C32.3657 61.6377 28.6373 65.3661 24.0462 65.3661C19.4551 65.3661 15.7267 61.6377 15.7267 57.0467C15.7267 52.4556 19.4551 48.7272 24.0462 48.7272C26.5252 48.7272 28.905 49.8576 30.4817 51.7813L43.3923 46.0598C43.3328 45.6532 43.303 45.2367 43.303 44.8302C43.303 40.2391 47.0314 36.5107 51.6225 36.5107C52.8322 36.5107 54.0023 36.7685 55.0931 37.2742L72.3469 16.7779C71.385 15.3897 70.8793 13.7635 70.8793 12.0678C70.8793 7.47674 74.6077 3.74833 79.1988 3.74833C83.7899 3.74833 87.5183 7.47674 87.5183 12.0678C87.5183 16.649 83.78 20.3774 79.1988 20.3774ZM55.5195 44.8302C55.5195 42.6784 53.7743 40.9332 51.6225 40.9332C49.4707 40.9332 47.7255 42.6784 47.7255 44.8302C47.7255 46.9819 49.4707 48.7272 51.6225 48.7272C53.7743 48.7272 55.5195 46.9819 55.5195 44.8302ZM83.0958 12.0579C83.0958 9.90615 81.3506 8.16094 79.1988 8.16094C77.047 8.16094 75.3018 9.90615 75.3018 12.0579C75.3018 14.2097 77.047 15.9549 79.1988 15.9549C81.3506 15.9549 83.0958 14.2097 83.0958 12.0579ZM27.9432 57.0467C27.9432 54.8949 26.198 53.1497 24.0462 53.1497C21.8944 53.1497 20.1492 54.8949 20.1492 57.0467C20.1492 59.1984 21.8944 60.9436 24.0462 60.9436C26.198 60.9535 27.9432 59.1984 27.9432 57.0467Z" fill="#1ABC0F"/>
</svg>
