<svg width="118" height="118" viewBox="0 0 118 118" fill="none" xmlns="http://www.w3.org/2000/svg">
<path d="M79.3277 75.7772C76.4637 75.7772 74.1337 73.7911 74.1337 71.35C74.1337 68.9086 76.4637 66.9225 79.3277 66.9225C82.1918 66.9225 84.5218 68.9086 84.5218 71.35C84.5218 72.6339 85.579 73.6751 86.8828 73.6751C88.1865 73.6751 89.2437 72.6339 89.2437 71.35C89.2437 67.0892 86.0201 63.5067 81.6887 62.5344V61.3251C81.6887 60.0412 80.6314 59 79.3277 59C78.024 59 76.9668 60.0412 76.9668 61.3251V62.5344C72.6354 63.5067 69.4118 67.0892 69.4118 71.35C69.4118 76.3552 73.86 80.4274 79.3277 80.4274C82.1918 80.4274 84.5218 82.4135 84.5218 84.8549C84.5218 87.2962 82.1918 89.2823 79.3277 89.2823C76.4637 89.2823 74.1337 87.2962 74.1337 84.8549C74.1337 83.5709 73.0764 82.5298 71.7727 82.5298C70.469 82.5298 69.4118 83.5709 69.4118 84.8549C69.4118 89.1156 72.6354 92.6981 76.9668 93.6705V94.6749C76.9668 95.9588 78.024 97 79.3277 97C80.6314 97 81.6887 95.9588 81.6887 94.6749V93.6705C86.0201 92.6981 89.2437 89.1156 89.2437 84.8549C89.2437 79.8494 84.7954 75.7772 79.3277 75.7772Z" fill="#1ABC0F"/>
<path d="M104.225 62.2079C101.136 57.4641 96.785 53.6681 91.6415 51.2308C90.4643 50.6728 89.0516 51.1613 88.4861 52.3215C87.9203 53.4816 88.4157 54.8739 89.5926 55.4316C98.5558 59.6788 104.347 68.7537 104.347 78.5508C104.347 82.743 103.299 86.9005 101.316 90.5743C100.703 91.7105 101.14 93.1219 102.293 93.7264C102.646 93.9119 103.026 94 103.401 94C104.247 94 105.065 93.5511 105.49 92.7636C107.836 88.4186 109.076 83.5037 109.076 78.5508C109.076 72.7338 107.398 67.0824 104.225 62.2079Z" fill="#1ABC0F"/>
<path d="M82.3717 48.0002L82.2423 48C81.1805 48 80.3193 48.8954 80.3193 49.9999C80.3193 51.1044 81.1805 51.9998 82.2423 51.9998L82.3537 52C82.3567 52 82.3596 52 82.3629 52C83.4207 52 84.2807 51.1108 84.2857 50.0095C84.2905 48.905 83.4336 48.0054 82.3717 48.0002Z" fill="#1ABC0F"/>
<path d="M68.0713 101.568C59.1082 97.321 53.3168 88.2461 53.3168 78.4492C53.3168 74.257 54.3652 70.0995 56.3481 66.4256C56.9614 65.2895 56.5243 63.8781 55.3714 63.2736C54.2191 62.669 52.7868 63.0999 52.1737 64.2363C49.8281 68.5816 48.5882 73.4963 48.5882 78.4492C48.5882 84.2662 50.2657 89.9173 53.4393 94.7922C56.5278 99.536 60.8791 103.332 66.0226 105.77C66.3529 105.926 66.7019 106 67.0454 106C67.9259 106 68.7709 105.513 69.178 104.679C69.7433 103.519 69.2482 102.126 68.0713 101.568Z" fill="#1ABC0F"/>
<path d="M74.4298 104L74.3184 104C73.2514 103.998 72.3914 104.886 72.3866 105.99C72.3816 107.095 73.2389 107.994 74.3009 108L74.4298 108C75.4917 108 76.3529 107.104 76.3529 106C76.3529 104.896 75.4917 104 74.4298 104Z" fill="#1ABC0F"/>
<path d="M89.2855 40.1498C89.005 39.4735 88.6614 38.8361 88.2615 38.245H94.2615C100.107 38.245 104.863 33.4326 104.863 27.5177C104.863 21.6028 100.107 16.7905 94.2615 16.7905H75.8056C76.979 15.0643 77.6678 12.976 77.6678 10.7273C77.6678 4.81234 72.9119 0 67.0663 0H10.6015C4.75594 0 0 4.81234 0 10.7273C0 16.6422 4.75594 21.4545 10.6015 21.4545H29.0574C27.8841 23.1807 27.1953 25.269 27.1953 27.5177C27.1953 29.7665 27.8839 31.8548 29.0574 33.581H23.0468C17.2012 33.581 12.4453 38.3933 12.4453 44.3082C12.4453 47.7053 14.0157 50.7366 16.4589 52.7035C14.0157 54.6703 12.4453 57.7017 12.4453 61.0987C12.4453 64.4957 14.0157 67.5271 16.4589 69.4939C14.0157 71.4608 12.4453 74.4921 12.4453 77.8892C12.4453 81.2862 14.0157 84.3176 16.4589 86.2844C14.0157 88.2512 12.4453 91.2826 12.4453 94.6797C12.4453 100.595 17.2012 105.407 23.0468 105.407H50.2075C57.3626 113.151 67.5415 118 78.8204 118C100.424 118 118 100.216 118 78.3558C118 60.1622 105.824 44.794 89.2855 40.1498ZM94.2615 21.4545C97.5658 21.4545 100.254 24.1746 100.254 27.5177C100.254 30.8609 97.5658 33.581 94.2615 33.581H37.7968C34.4926 33.581 31.8046 30.8609 31.8046 27.5177C31.8046 24.1746 34.4926 21.4545 37.7968 21.4545H94.2615ZM10.6015 16.7905C7.29732 16.7905 4.60937 14.0704 4.60937 10.7273C4.60937 7.38408 7.29732 4.66402 10.6015 4.66402H67.0663C70.3705 4.66402 73.0585 7.38408 73.0585 10.7273C73.0585 14.0704 70.3705 16.7905 67.0663 16.7905H10.6015ZM23.0468 38.245H79.5116C80.4399 38.245 81.3288 38.4633 82.1262 38.8541C81.0361 38.7615 79.934 38.7116 78.8204 38.7116C68.0011 38.7116 58.1923 43.1725 51.0953 50.3714H23.0468C19.7428 50.3714 17.0547 47.6514 17.0547 44.3082C17.0547 40.965 19.7428 38.245 23.0468 38.245ZM23.0468 55.0355H47.1573C44.541 58.6624 42.5182 62.7533 41.2335 67.1619H23.0468C19.7426 67.1619 17.0547 64.4421 17.0547 61.0987C17.0547 57.7555 19.7426 55.0355 23.0468 55.0355ZM23.0468 71.8259H40.1752C39.8256 73.9511 39.6408 76.1318 39.6408 78.3558C39.6408 80.2555 39.7765 82.1234 40.033 83.9524H23.0468C19.7426 83.9524 17.0547 81.2326 17.0547 77.8892C17.0547 74.5458 19.7426 71.8259 23.0468 71.8259ZM23.0468 100.743C19.7426 100.743 17.0547 98.0231 17.0547 94.6797C17.0547 91.3363 19.7426 88.6164 23.0468 88.6164H40.974C42.137 93.0036 44.0261 97.0924 46.5037 100.743H23.0468ZM78.8204 113.336C59.7584 113.336 44.2501 97.6439 44.2501 78.3558C44.2501 59.0677 59.7584 43.3756 78.8204 43.3756C97.8824 43.3756 113.391 59.0677 113.391 78.3558C113.391 97.6439 97.8824 113.336 78.8204 113.336Z" fill="#1ABC0F"/>
</svg>
